<?xml version="1.0" encoding="UTF-8" standalone="no"?>
<!-- Created with Inkscape (http://www.inkscape.org/) -->

<svg
   version="1.1"
   id="svg2"
   width="443.65067"
   height="574.13599"
   viewBox="0 0 443.65067 574.13599"
   sodipodi:docname="info-908889.ai"
   xmlns:inkscape="http://www.inkscape.org/namespaces/inkscape"
   xmlns:sodipodi="http://sodipodi.sourceforge.net/DTD/sodipodi-0.dtd"
   xmlns="http://www.w3.org/2000/svg"
   xmlns:svg="http://www.w3.org/2000/svg">
  <defs
     id="defs6">
    <clipPath
       clipPathUnits="userSpaceOnUse"
       id="clipPath16">
      <path
         d="M 0,430.602 H 332.738 V 0 H 0 Z"
         id="path14" />
    </clipPath>
    <clipPath
       clipPathUnits="userSpaceOnUse"
       id="clipPath38">
      <path
         d="M 0,430.602 H 332.738 V 0 H 0 Z"
         id="path36" />
    </clipPath>
    <clipPath
       clipPathUnits="userSpaceOnUse"
       id="clipPath50">
      <path
         d="M 0,430.602 H 332.738 V 0 H 0 Z"
         id="path48" />
    </clipPath>
    <clipPath
       clipPathUnits="userSpaceOnUse"
       id="clipPath62">
      <path
         d="M 0,430.602 H 332.738 V 0 H 0 Z"
         id="path60" />
    </clipPath>
    <clipPath
       clipPathUnits="userSpaceOnUse"
       id="clipPath90">
      <path
         d="M 0,430.602 H 332.738 V 0 H 0 Z"
         id="path88" />
    </clipPath>
    <clipPath
       clipPathUnits="userSpaceOnUse"
       id="clipPath102">
      <path
         d="M 0,430.602 H 332.738 V 0 H 0 Z"
         id="path100" />
    </clipPath>
    <clipPath
       clipPathUnits="userSpaceOnUse"
       id="clipPath114">
      <path
         d="M 0,430.602 H 332.738 V 0 H 0 Z"
         id="path112" />
    </clipPath>
    <clipPath
       clipPathUnits="userSpaceOnUse"
       id="clipPath126">
      <path
         d="M 0,430.602 H 332.738 V 0 H 0 Z"
         id="path124" />
    </clipPath>
    <clipPath
       clipPathUnits="userSpaceOnUse"
       id="clipPath138">
      <path
         d="M 0,430.602 H 332.738 V 0 H 0 Z"
         id="path136" />
    </clipPath>
    <clipPath
       clipPathUnits="userSpaceOnUse"
       id="clipPath154">
      <path
         d="M 0,430.602 H 332.738 V 0 H 0 Z"
         id="path152" />
    </clipPath>
    <clipPath
       clipPathUnits="userSpaceOnUse"
       id="clipPath166">
      <path
         d="M 0,430.602 H 332.738 V 0 H 0 Z"
         id="path164" />
    </clipPath>
    <clipPath
       clipPathUnits="userSpaceOnUse"
       id="clipPath186">
      <path
         d="M 0,430.602 H 332.738 V 0 H 0 Z"
         id="path184" />
    </clipPath>
    <clipPath
       clipPathUnits="userSpaceOnUse"
       id="clipPath198">
      <path
         d="M 0,430.602 H 332.738 V 0 H 0 Z"
         id="path196" />
    </clipPath>
    <clipPath
       clipPathUnits="userSpaceOnUse"
       id="clipPath210">
      <path
         d="M 0,430.602 H 332.738 V 0 H 0 Z"
         id="path208" />
    </clipPath>
    <clipPath
       clipPathUnits="userSpaceOnUse"
       id="clipPath222">
      <path
         d="M 0,430.602 H 332.738 V 0 H 0 Z"
         id="path220" />
    </clipPath>
  </defs>
  <sodipodi:namedview
     id="namedview4"
     pagecolor="#ffffff"
     bordercolor="#000000"
     borderopacity="0.25"
     inkscape:showpageshadow="2"
     inkscape:pageopacity="0.0"
     inkscape:pagecheckerboard="0"
     inkscape:deskcolor="#d1d1d1" />
  <g
     id="g8"
     inkscape:groupmode="layer"
     inkscape:label="info-908889"
     transform="matrix(1.3333333,0,0,-1.3333333,0,574.136)">
    <g
       id="g10">
      <g
         id="g12"
         clip-path="url(#clipPath16)">
        <g
           id="g18"
           transform="translate(332.7383,39.1445)">
          <path
             d="m 0,0 c 0,-21.617 -17.527,-39.145 -39.146,-39.145 h -254.447 c -21.616,0 -39.145,17.528 -39.145,39.145 v 352.312 c 0,21.618 17.529,39.145 39.145,39.145 H -39.146 C -17.527,391.457 0,373.93 0,352.312 Z"
             style="fill:#efeeef;fill-opacity:1;fill-rule:nonzero;stroke:none"
             id="path20" />
        </g>
      </g>
    </g>
    <path
       d="M 167.764,60.569 H 293.311 V 50.399 H 167.764 Z"
       style="fill:#bbbdbf;fill-opacity:1;fill-rule:nonzero;stroke:none"
       id="path22" />
    <path
       d="M 167.764,80.569 H 293.311 V 70.399 H 167.764 Z"
       style="fill:#bbbdbf;fill-opacity:1;fill-rule:nonzero;stroke:none"
       id="path24" />
    <path
       d="M 167.764,100.569 H 293.311 V 90.399 H 167.764 Z"
       style="fill:#bbbdbf;fill-opacity:1;fill-rule:nonzero;stroke:none"
       id="path26" />
    <path
       d="m 167.764,120.569 h 125.547 v -10.17 H 167.764 Z"
       style="fill:#bbbdbf;fill-opacity:1;fill-rule:nonzero;stroke:none"
       id="path28" />
    <path
       d="M 167.764,155.579 H 293.311 V 135.39 H 167.764 Z"
       style="fill:#808184;fill-opacity:1;fill-rule:nonzero;stroke:none"
       id="path30" />
    <g
       id="g32">
      <g
         id="g34"
         clip-path="url(#clipPath38)">
        <g
           id="g40"
           transform="translate(140.8643,155.4941)">
          <path
             d="m 0,0 h -22.521 c -2.067,0 -3.753,-1.689 -3.753,-3.753 v -97.589 c 0,-2.062 1.686,-3.752 3.753,-3.752 H 0 c 2.06,0 3.753,1.69 3.753,3.752 V -3.753 C 3.753,-1.689 2.06,0 0,0"
             style="fill:#ffaa6e;fill-opacity:1;fill-rule:nonzero;stroke:none"
             id="path42" />
        </g>
      </g>
    </g>
    <g
       id="g44">
      <g
         id="g46"
         clip-path="url(#clipPath50)">
        <g
           id="g52"
           transform="translate(103.3301,140.4805)">
          <path
             d="m 0,0 h -22.521 c -2.067,0 -3.752,-1.689 -3.752,-3.753 v -82.575 c 0,-2.063 1.685,-3.752 3.752,-3.752 H 0 c 2.061,0 3.754,1.689 3.754,3.752 V -3.753 C 3.754,-1.689 2.061,0 0,0"
             style="fill:#ffaa6e;fill-opacity:1;fill-rule:nonzero;stroke:none"
             id="path54" />
        </g>
      </g>
    </g>
    <g
       id="g56">
      <g
         id="g58"
         clip-path="url(#clipPath62)">
        <g
           id="g64"
           transform="translate(65.7969,125.4678)">
          <path
             d="m 0,0 h -22.521 c -2.067,0 -3.753,-1.69 -3.753,-3.753 v -67.562 c 0,-2.063 1.686,-3.752 3.753,-3.752 H 0 c 2.06,0 3.753,1.689 3.753,3.752 V -3.753 C 3.753,-1.69 2.06,0 0,0"
             style="fill:#ffaa6e;fill-opacity:1;fill-rule:nonzero;stroke:none"
             id="path66" />
        </g>
      </g>
    </g>
    <g
       id="g68"
       transform="translate(216.3496,246.9702)">
      <path
         d="M 0,0 50,-10"
         style="fill:none;stroke:#58595b;stroke-width:6;stroke-linecap:butt;stroke-linejoin:miter;stroke-miterlimit:10;stroke-dasharray:none;stroke-opacity:1"
         id="path70" />
    </g>
    <g
       id="g72"
       transform="translate(166.3496,214.6016)">
      <path
         d="M 0,0 50,32.369"
         style="fill:none;stroke:#58595b;stroke-width:6;stroke-linecap:butt;stroke-linejoin:miter;stroke-miterlimit:10;stroke-dasharray:none;stroke-opacity:1"
         id="path74" />
    </g>
    <g
       id="g76"
       transform="translate(116.3496,226.9702)">
      <path
         d="M 0,0 50,-12.369"
         style="fill:none;stroke:#58595b;stroke-width:6;stroke-linecap:butt;stroke-linejoin:miter;stroke-miterlimit:10;stroke-dasharray:none;stroke-opacity:1"
         id="path78" />
    </g>
    <g
       id="g80"
       transform="translate(66.3496,205.5225)">
      <path
         d="M 0,0 50,21.448"
         style="fill:none;stroke:#58595b;stroke-width:6;stroke-linecap:butt;stroke-linejoin:miter;stroke-miterlimit:10;stroke-dasharray:none;stroke-opacity:1"
         id="path82" />
    </g>
    <g
       id="g84">
      <g
         id="g86"
         clip-path="url(#clipPath90)">
        <g
           id="g92"
           transform="translate(254.9023,235.5234)">
          <path
             d="m 0,0 c 0,6.326 5.119,11.447 11.447,11.447 6.317,0 11.448,-5.121 11.448,-11.447 0,-6.328 -5.131,-11.448 -11.448,-11.448 C 5.119,-11.448 0,-6.328 0,0"
             style="fill:#be5252;fill-opacity:1;fill-rule:nonzero;stroke:none"
             id="path94" />
        </g>
      </g>
    </g>
    <g
       id="g96">
      <g
         id="g98"
         clip-path="url(#clipPath102)">
        <g
           id="g104"
           transform="translate(204.9023,245.5234)">
          <path
             d="m 0,0 c 0,6.326 5.119,11.447 11.447,11.447 6.317,0 11.448,-5.121 11.448,-11.447 0,-6.328 -5.131,-11.448 -11.448,-11.448 C 5.119,-11.448 0,-6.328 0,0"
             style="fill:#be5252;fill-opacity:1;fill-rule:nonzero;stroke:none"
             id="path106" />
        </g>
      </g>
    </g>
    <g
       id="g108">
      <g
         id="g110"
         clip-path="url(#clipPath114)">
        <g
           id="g116"
           transform="translate(154.9023,215.5234)">
          <path
             d="m 0,0 c 0,6.326 5.119,11.447 11.447,11.447 6.317,0 11.448,-5.121 11.448,-11.447 0,-6.328 -5.131,-11.448 -11.448,-11.448 C 5.119,-11.448 0,-6.328 0,0"
             style="fill:#be5252;fill-opacity:1;fill-rule:nonzero;stroke:none"
             id="path118" />
        </g>
      </g>
    </g>
    <g
       id="g120">
      <g
         id="g122"
         clip-path="url(#clipPath126)">
        <g
           id="g128"
           transform="translate(104.9023,225.5234)">
          <path
             d="m 0,0 c 0,6.326 5.12,11.447 11.448,11.447 6.316,0 11.447,-5.121 11.447,-11.447 0,-6.328 -5.131,-11.448 -11.447,-11.448 C 5.12,-11.448 0,-6.328 0,0"
             style="fill:#be5252;fill-opacity:1;fill-rule:nonzero;stroke:none"
             id="path130" />
        </g>
      </g>
    </g>
    <g
       id="g132">
      <g
         id="g134"
         clip-path="url(#clipPath138)">
        <g
           id="g140"
           transform="translate(54.9023,205.5234)">
          <path
             d="m 0,0 c 0,6.326 5.12,11.447 11.448,11.447 6.316,0 11.447,-5.121 11.447,-11.447 0,-6.328 -5.131,-11.448 -11.447,-11.448 C 5.12,-11.448 0,-6.328 0,0"
             style="fill:#be5252;fill-opacity:1;fill-rule:nonzero;stroke:none"
             id="path142" />
        </g>
      </g>
    </g>
    <g
       id="g144"
       transform="translate(38.9023,263.1016)">
      <path
         d="M 0,0 V -80 H 254.408"
         style="fill:none;stroke:#bbbdbf;stroke-width:3;stroke-linecap:round;stroke-linejoin:round;stroke-miterlimit:10;stroke-dasharray:none;stroke-opacity:1"
         id="path146" />
    </g>
    <g
       id="g148">
      <g
         id="g150"
         clip-path="url(#clipPath154)">
        <g
           id="g156"
           transform="translate(240.7627,339.7114)">
          <path
             d="m 0,0 v 49.976 c -27.601,0 -49.975,-22.377 -49.975,-49.976 0,-27.602 22.374,-49.975 49.975,-49.975 27.597,0 49.976,22.373 49.976,49.975 0,8.039 -1.903,15.635 -5.271,22.352 z"
             style="fill:#52a5be;fill-opacity:1;fill-rule:nonzero;stroke:none"
             id="path158" />
        </g>
      </g>
    </g>
    <g
       id="g160">
      <g
         id="g162"
         clip-path="url(#clipPath166)">
        <g
           id="g168"
           transform="translate(292.6074,376.3423)">
          <path
             d="M 0,0 C -8.206,16.377 -25.141,27.623 -44.704,27.623 V -22.352 Z"
             style="fill:#68be52;fill-opacity:1;fill-rule:nonzero;stroke:none"
             id="path170" />
        </g>
      </g>
    </g>
    <path
       d="M 73.245,301.247 H 164.45 V 289.8 H 73.245 Z"
       style="fill:#bbbdbf;fill-opacity:1;fill-rule:nonzero;stroke:none"
       id="path172" />
    <path
       d="M 73.245,330.247 H 164.45 V 318.8 H 73.245 Z"
       style="fill:#bbbdbf;fill-opacity:1;fill-rule:nonzero;stroke:none"
       id="path174" />
    <path
       d="M 73.245,359.589 H 164.45 V 348.142 H 73.245 Z"
       style="fill:#bbbdbf;fill-opacity:1;fill-rule:nonzero;stroke:none"
       id="path176" />
    <path
       d="M 73.245,388.932 H 164.45 V 377.484 H 73.245 Z"
       style="fill:#bbbdbf;fill-opacity:1;fill-rule:nonzero;stroke:none"
       id="path178" />
    <g
       id="g180">
      <g
         id="g182"
         clip-path="url(#clipPath186)">
        <g
           id="g188"
           transform="translate(38.9023,295.5229)">
          <path
             d="m 0,0 c 0,6.327 5.12,11.447 11.448,11.447 6.316,0 11.447,-5.12 11.447,-11.447 0,-6.328 -5.131,-11.448 -11.447,-11.448 C 5.12,-11.448 0,-6.328 0,0"
             style="fill:#808184;fill-opacity:1;fill-rule:nonzero;stroke:none"
             id="path190" />
        </g>
      </g>
    </g>
    <g
       id="g192">
      <g
         id="g194"
         clip-path="url(#clipPath198)">
        <g
           id="g200"
           transform="translate(38.9023,324.5229)">
          <path
             d="m 0,0 c 0,6.327 5.12,11.447 11.448,11.447 6.316,0 11.447,-5.12 11.447,-11.447 0,-6.328 -5.131,-11.448 -11.447,-11.448 C 5.12,-11.448 0,-6.328 0,0"
             style="fill:#808184;fill-opacity:1;fill-rule:nonzero;stroke:none"
             id="path202" />
        </g>
      </g>
    </g>
    <g
       id="g204">
      <g
         id="g206"
         clip-path="url(#clipPath210)">
        <g
           id="g212"
           transform="translate(38.9023,353.8652)">
          <path
             d="m 0,0 c 0,6.328 5.12,11.448 11.448,11.448 6.316,0 11.447,-5.12 11.447,-11.448 0,-6.328 -5.131,-11.448 -11.447,-11.448 C 5.12,-11.448 0,-6.328 0,0"
             style="fill:#808184;fill-opacity:1;fill-rule:nonzero;stroke:none"
             id="path214" />
        </g>
      </g>
    </g>
    <g
       id="g216">
      <g
         id="g218"
         clip-path="url(#clipPath222)">
        <g
           id="g224"
           transform="translate(38.9023,383.2075)">
          <path
             d="m 0,0 c 0,6.328 5.12,11.448 11.448,11.448 6.316,0 11.447,-5.12 11.447,-11.448 0,-6.327 -5.131,-11.447 -11.447,-11.447 C 5.12,-11.447 0,-6.327 0,0"
             style="fill:#808184;fill-opacity:1;fill-rule:nonzero;stroke:none"
             id="path226" />
        </g>
      </g>
    </g>
  </g>
</svg>
